<svg xmlns="http://www.w3.org/2000/svg" width="448" height="344"><g transform="translate(-304 -573)" fill="#fff"><rect width="80" height="80" rx="20" transform="rotate(180 236 458.5)"/><rect width="80" height="80" rx="20" transform="rotate(180 236 414.5)"/><rect width="80" height="80" rx="20" transform="rotate(180 236 370.5)"/><rect width="80" height="80" rx="20" transform="rotate(180 236 326.5)"/><rect width="80" height="80" rx="20" transform="rotate(180 192 326.5)"/><rect width="80" height="80" rx="20" transform="rotate(180 288 458.5)"/><rect width="80" height="80" rx="20" transform="rotate(180 288 414.5)"/><rect width="80" height="80" rx="20" transform="rotate(180 288 370.5)"/><rect width="80" height="80" rx="20" transform="rotate(180 288 326.5)"/><rect width="80" height="80" rx="20" transform="rotate(180 376 458.5)"/><rect width="80" height="80" rx="20" transform="rotate(180 376 414.5)"/><rect width="80" height="80" rx="20" transform="rotate(180 376 370.5)"/><rect width="80" height="80" rx="20" transform="rotate(180 376 326.5)"/><rect width="80" height="80" rx="20" transform="rotate(180 332 326.5)"/><rect width="80" height="80" rx="20" transform="rotate(180 332 458.5)"/></g></svg>