<svg xmlns="http://www.w3.org/2000/svg" width="448" height="344" viewBox="0 0 448 344"><g transform="translate(-304 -573)"><rect width="80" height="80" rx="20" transform="translate(472 917) rotate(180)" fill="#fff"/><rect width="80" height="80" rx="20" transform="translate(472 829) rotate(180)" fill="#fff"/><rect width="80" height="80" rx="20" transform="translate(472 741) rotate(180)" fill="#fff"/><rect width="80" height="80" rx="20" transform="translate(472 653) rotate(180)" fill="#fff"/><rect width="80" height="80" rx="20" transform="translate(384 653) rotate(180)" fill="#fff"/><rect width="80" height="80" rx="20" transform="translate(576 917) rotate(180)" fill="#fff"/><rect width="80" height="80" rx="20" transform="translate(576 829) rotate(180)" fill="#fff"/><rect width="80" height="80" rx="20" transform="translate(576 741) rotate(180)" fill="#fff"/><rect width="80" height="80" rx="20" transform="translate(576 653) rotate(180)" fill="#fff"/><rect width="80" height="80" rx="20" transform="translate(752 917) rotate(180)" fill="#fff"/><rect width="80" height="80" rx="20" transform="translate(752 829) rotate(180)" fill="#fff"/><rect width="80" height="80" rx="20" transform="translate(752 741) rotate(180)" fill="#fff"/><rect width="80" height="80" rx="20" transform="translate(752 653) rotate(180)" fill="#fff"/><rect width="80" height="80" rx="20" transform="translate(664 653) rotate(180)" fill="#fff"/><rect width="80" height="80" rx="20" transform="translate(664 917) rotate(180)" fill="#fff"/></g></svg>